<?xml version="1.0" encoding="utf-8"?><svg version="1.1" id="Layer_1" xmlns="http://www.w3.org/2000/svg" xmlns:xlink="http://www.w3.org/1999/xlink" x="0px" y="0px" viewBox="0 0 122.88 112.92" style="enable-background:new 0 0 122.88 112.92" xml:space="preserve"><style type="text/css">.st0{fill-rule:evenodd;clip-rule:evenodd;}</style><g><path class="st0" d="M19.8,0h83.27c5.45,0,10.4,2.23,13.99,5.82c3.59,3.59,5.82,8.54,5.82,13.99v50.6c0,5.45-2.21,10.44-5.81,14.06 c-3.57,3.59-8.5,5.83-13.99,5.83H36.51L5.59,112.27c-1.59,1.13-3.79,0.76-4.92-0.83c-0.44-0.62-0.65-1.34-0.65-2.05H0V19.8 C0,14.37,2.23,9.42,5.82,5.83l0.02-0.02C9.43,2.22,14.38,0,19.8,0L19.8,0z M66.17,22.4v42.94H54.98V47.32h-3.26v18.02H40.54V22.4 h11.18v15.36h3.26V22.4H66.17L66.17,22.4z M82.34,22.4V28H71.32V22.4H82.34L82.34,22.4z M82.34,30.17v35.18H71.32V30.17H82.34 L82.34,30.17z"/></g></svg>